<svg width="32" height="32" viewBox="0 0 32 32" fill="none" xmlns="http://www.w3.org/2000/svg">
<rect width="32" height="32" fill="white"/>
<path d="M11.9627 22L7.89869 17.024V22H5.65869V10.832H7.89869V15.84L11.9627 10.832H14.6667L10.0587 16.368L14.7947 22H11.9627ZM15.7241 16.4C15.7241 15.3013 15.9694 14.32 16.4601 13.456C16.9614 12.5813 17.6387 11.904 18.4921 11.424C19.3561 10.9333 20.3214 10.688 21.3881 10.688C22.6361 10.688 23.7294 11.008 24.6681 11.648C25.6067 12.288 26.2627 13.1733 26.6361 14.304H24.0601C23.8041 13.7707 23.4414 13.3707 22.9721 13.104C22.5134 12.8373 21.9801 12.704 21.3721 12.704C20.7214 12.704 20.1401 12.8587 19.6281 13.168C19.1267 13.4667 18.7321 13.8933 18.4441 14.448C18.1667 15.0027 18.0281 15.6533 18.0281 16.4C18.0281 17.136 18.1667 17.7867 18.4441 18.352C18.7321 18.9067 19.1267 19.3387 19.6281 19.648C20.1401 19.9467 20.7214 20.096 21.3721 20.096C21.9801 20.096 22.5134 19.9627 22.9721 19.696C23.4414 19.4187 23.8041 19.0133 24.0601 18.48H26.6361C26.2627 19.6213 25.6067 20.512 24.6681 21.152C23.7401 21.7813 22.6467 22.096 21.3881 22.096C20.3214 22.096 19.3561 21.856 18.4921 21.376C17.6387 20.8853 16.9614 20.208 16.4601 19.344C15.9694 18.48 15.7241 17.4987 15.7241 16.4Z" fill="black"/>
</svg>
